<?xml version="1.0" encoding="UTF-8"?><svg id="Layer_1" xmlns="http://www.w3.org/2000/svg" width="31" height="31" viewBox="0 0 31 31"><defs><style>.cls-1{fill:#231f20;}</style></defs><path class="cls-1" d="m18.73,2.44l1.33,4.27c.45,1.45,1.76,2.44,3.23,2.44h4.32c3.29,0,4.65,4.37,1.99,6.38l-3.49,2.64c-1.19.9-1.69,2.49-1.23,3.94l1.33,4.27c1.02,3.25-2.56,5.95-5.22,3.94l-3.49-2.64c-1.19-.9-2.8-.9-3.99,0l-3.49,2.64c-2.66,2.01-6.23-.69-5.22-3.94l1.33-4.27c.45-1.45-.04-3.04-1.23-3.94l-3.49-2.64c-2.66-2.01-1.29-6.38,1.99-6.38h4.32c1.47,0,2.77-.98,3.23-2.44l1.33-4.27c1.02-3.25,5.44-3.25,6.45,0Z"/></svg>