<svg xmlns="http://www.w3.org/2000/svg" viewBox="0 0 128 128"><path d="M64,36.73c14.77,0,26.5,6,33.74,11,7.68,5.32,12,10.73,13.61,13.49-1.77,2.84-6.24,8.34-13.81,13.73-7.26,5.16-19,11.32-33.54,11.32-25.72,0-43.14-18.15-47.3-24.86,4-6.66,21.22-24.69,47.3-24.69m0-12C27.87,24.73,4.07,53.48,4.07,61.5c0,7.73,24.27,36.78,59.93,36.78,35.07,0,59.93-29,59.93-36.78,0-9.43-25.33-36.77-59.93-36.77Z" style="fill:#b3b3b3"/><ellipse cx="64" cy="61.5" rx="24.34" ry="19.25" style="fill:#b3b3b3"/><rect width="128" height="128" style="fill:none"/></svg>