<svg xmlns="http://www.w3.org/2000/svg" viewBox="0 0 128 128"><rect width="128" height="128" style="fill:none"/><path d="M67.91,123,90.73,94.39a5,5,0,0,0-3.91-8.11H41.18a5,5,0,0,0-3.91,8.11L60.09,123A5,5,0,0,0,67.91,123Z" style="fill:#b3b3b3"/><path d="M65.42,98.43H61.53a5,5,0,0,1-5-5v-23a1.84,1.84,0,0,0-1.85-1.84H5a5,5,0,0,1-5-5V60.46a5,5,0,0,1,5-5H65.42a5,5,0,0,1,5,5v33A5,5,0,0,1,65.42,98.43Z" style="fill:#b3b3b3"/><path d="M61.6,12.92h3.82a5,5,0,0,1,5,5V93.36a5.08,5.08,0,0,1-5.08,5.08H61.6a5.08,5.08,0,0,1-5.08-5.08V18A5.08,5.08,0,0,1,61.6,12.92Z" style="fill:#b3b3b3"/></svg>