<svg xmlns="http://www.w3.org/2000/svg" viewBox="0 0 128 128"><rect width="128" height="128" style="fill:none"/><path d="M114,72.07c-1.94-3.46-3.78-6.73-3-9.72,7.88-28.71-6.91-42.76-16.43-48.58-20.52-12.54-53.33-10-70.22,5.49C17.26,25.82,7,40.37,18.74,64c.8,1.62-1.83,6.14-3.57,9.13-3.06,5.26-6.52,11.21-3.36,16.39,2.78,4.54,9.7,6.47,22.75,6.23-4.3,18.16-1.71,21-.69,22.06,3.21,3.45,7.25,0,9.67-2a30.84,30.84,0,0,1,3.16-2.43c.42.57,1,1.43,1.35,2.07,1.69,2.74,4,6.49,8.23,6.7,4.41.2,6-4.39,7.46-8.44.22-.63.52-1.45.82-2.21.78,1.08,1.67,2.5,2.29,3.51,2.39,3.86,4.85,7.84,8.64,7.84a5.69,5.69,0,0,0,1.26-.15c3-.64,4-3.62,6.14-9.55l.79-2.17c.82.78,1.67,1.68,2.27,2.3,2.71,2.84,4.49,4.71,6.91,4.75a4.08,4.08,0,0,0,3.08-1.22c1.33-1.3,4.67-4.56-4.32-22.06,15.19-1.86,22.32-4.65,24.86-9.51C118.89,80.68,116.31,76.11,114,72.07ZM55.7,61.53C51.21,69.25,41,73,33,69.78s-10.93-12-6.43-19.73S41.21,38.63,49.26,41.8,60.2,53.8,55.7,61.53ZM71.27,82.24c-.86,13.37-3.75-.2-7.76-.2s-5.91,12.38-6.78.2C56.34,76.63,60,72.06,64,72.06S71.63,76.63,71.27,82.24ZM96.86,67.38c-7.48,4-18.15,1.44-23.84-5.73S68.79,45.4,76.27,41.4,94.42,40,100.11,47.13,104.34,63.38,96.86,67.38Z" style="fill:#e6e6e6"/></svg>