<svg xmlns="http://www.w3.org/2000/svg" viewBox="0 0 128 128"><path d="M20.46,70s24.85,41.21,41.44,37.77" style="fill:#b3b3b3;stroke:#b3b3b3;stroke-linecap:round;stroke-miterlimit:10;stroke-width:19px"/><path d="M49.67,77.71C40.49,43.14,29,25.69,29,25.69" style="fill:#b3b3b3;stroke:#b3b3b3;stroke-linecap:round;stroke-miterlimit:10;stroke-width:16px"/><path d="M63.07,75C66.33,36.43,59.81,14,59.81,14" style="fill:#b3b3b3;stroke:#b3b3b3;stroke-linecap:round;stroke-miterlimit:10;stroke-width:17px"/><path d="M74.55,77.71c14.16-13.76,17-50.31,17-50.31" style="fill:#b3b3b3;stroke:#b3b3b3;stroke-linecap:round;stroke-miterlimit:10;stroke-width:16px"/><path d="M87.56,87.11c8.74-9.85,17.14-18.35,26.79-35.41" style="fill:#b3b3b3;stroke:#b3b3b3;stroke-linecap:round;stroke-miterlimit:10;stroke-width:15px"/><path d="M100.63,92c7.71-19.78,6.13-33.39-36.53-33.39-28,0-33.37,18.63-33.37,33.39s19.63,26.52,38.93,26.52S95.08,106.23,100.63,92Z" style="fill:#b3b3b3;stroke:#b3b3b3;stroke-miterlimit:10"/><rect width="128" height="128" style="fill:none"/></svg>