<svg xmlns="http://www.w3.org/2000/svg" viewBox="0 0 128 128"><path d="M87.58,15.39l-6.2,6.2L96.16,36.37a3.81,3.81,0,0,1,0,5.36l-.4.39a3.8,3.8,0,0,1-5.35,0L75.63,27.34l-7,7L83.43,49.1a3.8,3.8,0,0,1,0,5.35l-.39.4a3.81,3.81,0,0,1-5.36,0L62.9,40.07l-7,7L70.7,61.83a3.8,3.8,0,0,1,0,5.35l-.39.39a3.78,3.78,0,0,1-5.35,0L50.17,52.79l-7,7L58,74.56a3.8,3.8,0,0,1,0,5.35l-.39.39a3.8,3.8,0,0,1-5.35,0L37.45,65.52l-7,7L45.24,87.28a3.79,3.79,0,0,1,0,5.36l-.39.39a3.8,3.8,0,0,1-5.35,0L24.72,78.25l-2.9,2.9a12,12,0,0,0,0,17l12.63,12.63a12,12,0,0,0,17,0L117.18,45a12,12,0,0,0,0-17L104.55,15.39A12,12,0,0,0,87.58,15.39Z" transform="translate(-0.5 -0.5)" style="fill:#b3b3b3"/><rect width="128" height="128" style="fill:none"/></svg>