<?xml version="1.0" encoding="UTF-8" standalone="no"?>
<svg
   id="Layer_1"
   width="128"
   height="128"
   viewBox="0 0 128 128"
   version="1.1"
   sodipodi:docname="IconCamera.svg"
   inkscape:version="1.3 (0e150ed6c4, 2023-07-21)"
   xmlns:inkscape="http://www.inkscape.org/namespaces/inkscape"
   xmlns:sodipodi="http://sodipodi.sourceforge.net/DTD/sodipodi-0.dtd"
   xmlns="http://www.w3.org/2000/svg"
   xmlns:svg="http://www.w3.org/2000/svg">
  <sodipodi:namedview
     id="namedview2"
     pagecolor="#ffffff"
     bordercolor="#000000"
     borderopacity="0.25"
     inkscape:showpageshadow="2"
     inkscape:pageopacity="0.0"
     inkscape:pagecheckerboard="0"
     inkscape:deskcolor="#d1d1d1"
     inkscape:zoom="6.3125"
     inkscape:cx="64"
     inkscape:cy="64"
     inkscape:window-width="1771"
     inkscape:window-height="1228"
     inkscape:window-x="0"
     inkscape:window-y="0"
     inkscape:window-maximized="0"
     inkscape:current-layer="g2" />
  <defs
     id="defs1">
    <style
       id="style1">.cls-1{fill:none;}.cls-1,.cls-2{stroke-width:0px;}.cls-2{fill:#b3b3b3;}</style>
  </defs>
  <g
     id="g2"
     transform="matrix(1.2286585,0,0,1.2286585,-14.634146,-14.634146)">
    <rect
       class="cls-1"
       width="103.92079"
       height="103.92079"
       id="rect1"
       x="12.039604"
       y="12.039604" />
    <rect
       class="cls-2"
       x="30"
       y="19.5"
       width="27"
       height="20.5"
       rx="8.0500002"
       ry="8.0500002"
       id="rect2" />
    <path
       class="cls-2"
       d="M 96.7,31 H 31.3 C 21.19,31 13,39.19 13,49.3 V 88.7 C 13,98.81 21.19,107 31.3,107 H 96.7 C 106.81,107 115,98.81 115,88.7 V 49.3 C 115,39.19 106.81,31 96.7,31 Z M 64,92 C 51.3,92 41,81.7 41,69 41,56.3 51.3,46 64,46 76.7,46 87,56.3 87,69 87,81.7 76.7,92 64,92 Z"
       id="path2" />
    <circle
       class="cls-2"
       cx="64"
       cy="69"
       r="11.067538"
       id="circle2" />
  </g>
</svg>
