<svg xmlns="http://www.w3.org/2000/svg" viewBox="0 0 128 128"><rect x="8.99" y="12.49" width="7" height="4" style="fill:#b3b3b3"/><rect x="8.99" y="94.24" width="7" height="8.64" style="fill:#b3b3b3"/><rect x="8.99" y="76.96" width="7" height="8.64" style="fill:#b3b3b3"/><rect x="8.99" y="59.68" width="7" height="8.64" style="fill:#b3b3b3"/><rect x="8.99" y="42.4" width="7" height="8.64" style="fill:#b3b3b3"/><rect x="8.99" y="25.13" width="7" height="8.64" style="fill:#b3b3b3"/><polygon points="16.49 119.01 8.99 119.01 8.99 111.51 15.99 111.51 15.99 112.01 16.49 112.01 16.49 119.01" style="fill:#b3b3b3"/><rect x="94.24" y="112.01" width="8.64" height="7" style="fill:#b3b3b3"/><rect x="76.96" y="112.01" width="8.64" height="7" style="fill:#b3b3b3"/><rect x="59.68" y="112.01" width="8.64" height="7" style="fill:#b3b3b3"/><rect x="42.4" y="112.01" width="8.64" height="7" style="fill:#b3b3b3"/><rect x="25.13" y="112.01" width="8.64" height="7" style="fill:#b3b3b3"/><rect x="111.51" y="112.01" width="4" height="7" style="fill:#b3b3b3"/><path d="M63.41,50.84a5.06,5.06,0,0,0-7.85,1L32.24,87.73c-3.52,5.42,5.14,10.43,8.63,5h0L60.64,62.37,72.83,75a5.05,5.05,0,0,0,7.85-1l24.43-41.11c3.3-5.54-5.35-10.58-8.63-5.05L75.41,63.31Z" style="fill:#b3b3b3"/><rect width="128" height="128" style="fill:none"/></svg>