<?xml version="1.0" encoding="UTF-8"?><svg id="Layer_1" xmlns="http://www.w3.org/2000/svg" width="61.07" height="61.07" viewBox="0 0 61.07 61.07"><defs><style>.cls-1{fill:#bcbec0;}.cls-2{fill:none;stroke:#bcbec0;stroke-miterlimit:10;stroke-width:13px;}</style></defs><circle class="cls-2" cx="30.87" cy="30.54" r="16.11"/><g id="_Radial_Repeat_"><rect class="cls-1" x="23.27" y="46.54" width="14.53" height="14.53" rx="4.18" ry="4.18" transform="translate(61.08 107.62) rotate(180)"/></g><g id="_Radial_Repeat_-2"><rect class="cls-1" x="6.82" y="39.73" width="14.53" height="14.53" rx="4.18" ry="4.18" transform="translate(-9.19 90.18) rotate(-135)"/></g><g id="_Radial_Repeat_-3"><rect class="cls-1" x="0" y="23.27" width="14.53" height="14.53" rx="4.18" ry="4.18" transform="translate(-23.27 37.8) rotate(-90)"/></g><g id="_Radial_Repeat_-4"><rect class="cls-1" x="6.82" y="6.82" width="14.53" height="14.53" rx="4.18" ry="4.18" transform="translate(-5.83 14.08) rotate(-45)"/></g><g id="_Radial_Repeat_-5"><rect class="cls-1" x="23.27" y="0" width="14.53" height="14.53" rx="4.18" ry="4.18"/></g><g id="_Radial_Repeat_-6"><rect class="cls-1" x="39.73" y="6.82" width="14.53" height="14.53" rx="4.18" ry="4.18" transform="translate(23.72 -29.1) rotate(45)"/></g><g id="_Radial_Repeat_-7"><rect class="cls-1" x="46.54" y="23.27" width="14.53" height="14.53" rx="4.18" ry="4.18" transform="translate(84.34 -23.27) rotate(90)"/></g><g id="_Radial_Repeat_-8"><rect class="cls-1" x="39.72" y="39.73" width="14.53" height="14.53" rx="4.18" ry="4.18" transform="translate(113.45 46.99) rotate(135)"/></g></svg>