<svg xmlns="http://www.w3.org/2000/svg" xmlns:xlink="http://www.w3.org/1999/xlink" viewBox="0 0 278 222.57"><defs><clipPath id="a" transform="translate(-122 -130)"><rect x="74.5" y="102.11" width="301.11" height="181" transform="translate(15.97 -17.23) rotate(4.54)" style="fill:none"/></clipPath></defs><rect x="79" y="151" width="5" height="5"/><path d="M206,286.36c-1.66,0-3.36.06-5,0l-.38,0V286l.13-5v-.26H201l5,.13h.13V281l-.12,5Zm0-.7-.11-4.66.12.12-5,.13.25-.25.13,5-.38-.38c1.58,0,3.09,0,4.65,0Z" transform="translate(-122 -130)"/><rect x="84" y="156" width="5" height="5"/><path d="M211,291.36c-1.66,0-3.36.06-5,0l-.38,0V291l.13-5v-.26H206l5,.13h.13V286l-.12,5Zm0-.7-.11-4.66.12.12-5,.13.25-.25.13,5-.38-.38c1.58,0,3.09,0,4.65,0Z" transform="translate(-122 -130)"/><rect x="79" y="156" width="5" height="5"/><path d="M206,291.36c-1.66,0-3.36.06-5,0l-.38,0V291l.13-5v-.26H201l5,.13h.13V286l-.12,5Zm0-.7-.11-4.66.12.12-5,.13.25-.25.13,5-.38-.38c1.58,0,3.09,0,4.65,0Z" transform="translate(-122 -130)"/><rect x="84" y="151" width="5" height="5"/><path d="M211,286.36c-1.66,0-3.36.06-5,0l-.38,0V286l.13-5v-.26H206l5,.13h.13V281l-.12,5Zm0-.7-.11-4.66.12.12-5,.13.25-.25.13,5-.38-.38c1.58,0,3.09,0,4.65,0Z" transform="translate(-122 -130)"/><rect x="89" y="151" width="5" height="5"/><path d="M216,286.36c-1.66,0-3.36.06-5,0l-.38,0V286l.13-5v-.26H211l5,.13h.13V281l-.12,5Zm0-.7-.11-4.66.12.12-5,.13.25-.25.13,5-.38-.38c1.58,0,3.09,0,4.65,0Z" transform="translate(-122 -130)"/><rect x="93" y="156" width="5" height="5"/><path d="M220,291.36c-1.66,0-3.36.06-5,0l-.38,0V291l.13-5v-.26H215l5,.13h.13V286l-.12,5Zm0-.7-.11-4.66.12.12-5,.13.25-.25.13,5-.38-.38c1.58,0,3.09,0,4.65,0Z" transform="translate(-122 -130)"/><rect x="89" y="156" width="5" height="5"/><path d="M216,291.36c-1.66,0-3.36.06-5,0l-.38,0V291l.13-5v-.26H211l5,.13h.13V286l-.12,5Zm0-.7-.11-4.66.12.12-5,.13.25-.25.13,5-.38-.38c1.58,0,3.09,0,4.65,0Z" transform="translate(-122 -130)"/><rect x="93" y="151" width="5" height="5"/><path d="M220,286.36c-1.66,0-3.36.06-5,0l-.38,0V286l.13-5v-.26H215l5,.13h.13V281l-.12,5Zm0-.7-.11-4.66.12.12-5,.13.25-.25.13,5-.38-.38c1.58,0,3.09,0,4.65,0Z" transform="translate(-122 -130)"/><rect x="98" y="151" width="5" height="5"/><path d="M225,286.36c-1.66,0-3.36.06-5,0l-.38,0V286l.13-5v-.26H220l5,.13h.13V281l-.12,5Zm0-.7-.11-4.66.12.12-5,.13.25-.25.13,5-.38-.38c1.58,0,3.09,0,4.65,0Z" transform="translate(-122 -130)"/><rect x="103" y="156" width="5" height="5"/><path d="M230,291.36c-1.66,0-3.36.06-5,0l-.38,0V291l.13-5v-.26H225l5,.13h.13V286l-.12,5Zm0-.7-.11-4.66.12.12-5,.13.25-.25.13,5-.38-.38c1.58,0,3.09,0,4.65,0Z" transform="translate(-122 -130)"/><rect x="98" y="156" width="5" height="5"/><path d="M225,291.36c-1.66,0-3.36.06-5,0l-.38,0V291l.13-5v-.26H220l5,.13h.13V286l-.12,5Zm0-.7-.11-4.66.12.12-5,.13.25-.25.13,5-.38-.38c1.58,0,3.09,0,4.65,0Z" transform="translate(-122 -130)"/><rect x="103" y="153" width="5" height="5"/><path d="M230,288.36c-1.66,0-3.36.06-5,0l-.38,0V288l.13-5v-.26H225l5,.13h.13V283l-.12,5Zm0-.7-.11-4.66.12.12-5,.13.25-.25.13,5-.38-.38c1.58,0,3.09,0,4.65,0Z" transform="translate(-122 -130)"/><rect x="79" y="161" width="5" height="5"/><path d="M206,296.36c-1.66,0-3.36.06-5,0l-.38,0V296l.13-5v-.26H201l5,.13h.13V291l-.12,5Zm0-.7-.11-4.66.12.12-5,.13.25-.25.13,5-.38-.38c1.58,0,3.09,0,4.65,0Z" transform="translate(-122 -130)"/><rect x="84" y="166" width="5" height="5"/><path d="M211,301.36c-1.66,0-3.36.06-5,0l-.38,0V301l.13-5v-.26H206l5,.13h.13V296l-.12,5Zm0-.7-.11-4.66.12.12-5,.13.25-.25.13,5-.38-.38c1.58,0,3.09,0,4.65,0Z" transform="translate(-122 -130)"/><rect x="79" y="166" width="5" height="5"/><path d="M206,301.36c-1.66,0-3.36.06-5,0l-.38,0V301l.13-5v-.26H201l5,.13h.13V296l-.12,5Zm0-.7-.11-4.66.12.12-5,.13.25-.25.13,5-.38-.38c1.58,0,3.09,0,4.65,0Z" transform="translate(-122 -130)"/><rect x="84" y="161" width="5" height="5"/><path d="M211,296.36c-1.66,0-3.36.06-5,0l-.38,0V296l.13-5v-.26H206l5,.13h.13V291l-.12,5Zm0-.7-.11-4.66.12.12-5,.13.25-.25.13,5-.38-.38c1.58,0,3.09,0,4.65,0Z" transform="translate(-122 -130)"/><rect x="89" y="161" width="5" height="5"/><path d="M216,296.36c-1.66,0-3.36.06-5,0l-.38,0V296l.13-5v-.26H211l5,.13h.13V291l-.12,5Zm0-.7-.11-4.66.12.12-5,.13.25-.25.13,5-.38-.38c1.58,0,3.09,0,4.65,0Z" transform="translate(-122 -130)"/><rect x="94" y="166" width="5" height="5"/><path d="M221,301.36c-1.66,0-3.36.06-5,0l-.38,0V301l.13-5v-.26H216l5,.13h.13V296l-.12,5Zm0-.7-.11-4.66.12.12-5,.13.25-.25.13,5-.38-.38c1.58,0,3.09,0,4.65,0Z" transform="translate(-122 -130)"/><rect x="89" y="166" width="5" height="5"/><path d="M216,301.36c-1.66,0-3.36.06-5,0l-.38,0V301l.13-5v-.26H211l5,.13h.13V296l-.12,5Zm0-.7-.11-4.66.12.12-5,.13.25-.25.13,5-.38-.38c1.58,0,3.09,0,4.65,0Z" transform="translate(-122 -130)"/><rect x="94" y="161" width="5" height="5"/><path d="M221,296.36c-1.66,0-3.36.06-5,0l-.38,0V296l.13-5v-.26H216l5,.13h.13V291l-.12,5Zm0-.7-.11-4.66.12.12-5,.13.25-.25.13,5-.38-.38c1.58,0,3.09,0,4.65,0Z" transform="translate(-122 -130)"/><rect x="89" y="171" width="5" height="5"/><path d="M216,306.36c-1.66,0-3.36.06-5,0l-.38,0V306l.13-5v-.26H211l5,.13h.13V301l-.12,5Zm0-.7-.11-4.66.12.12-5,.13.25-.25.13,5-.38-.38c1.58,0,3.09,0,4.65,0Z" transform="translate(-122 -130)"/><rect x="94" y="176" width="5" height="5"/><path d="M221,311.36c-1.66,0-3.36.06-5,0l-.38,0V311l.13-5v-.26H216l5,.13h.13V306l-.12,5Zm0-.7-.11-4.66.12.12-5,.13.25-.25.13,5-.38-.38c1.58,0,3.09,0,4.65,0Z" transform="translate(-122 -130)"/><rect x="89" y="176" width="5" height="5"/><path d="M216,311.36c-1.66,0-3.36.06-5,0l-.38,0V311l.13-5v-.26H211l5,.13h.13V306l-.12,5Zm0-.7-.11-4.66.12.12-5,.13.25-.25.13,5-.38-.38c1.58,0,3.09,0,4.65,0Z" transform="translate(-122 -130)"/><rect x="94" y="171" width="5" height="5"/><path d="M221,306.36c-1.66,0-3.36.06-5,0l-.38,0V306l.13-5v-.26H216l5,.13h.13V301l-.12,5Zm0-.7-.11-4.66.12.12-5,.13.25-.25.13,5-.38-.38c1.58,0,3.09,0,4.65,0Z" transform="translate(-122 -130)"/><rect x="99" y="181" width="5" height="5"/><path d="M226,316.36c-1.66,0-3.36.06-5,0l-.38,0V316l.13-5v-.26H221l5,.13h.13V311l-.12,5Zm0-.7-.11-4.66.12.12-5,.13.25-.25.13,5-.38-.38c1.58,0,3.09,0,4.65,0Z" transform="translate(-122 -130)"/><rect x="104" y="186" width="5" height="5"/><path d="M231,321.36c-1.66,0-3.36.06-5,0l-.38,0V321l.13-5v-.26H226l5,.13h.13V316l-.12,5Zm0-.7-.11-4.66.12.12-5,.13.25-.25.13,5-.38-.38c1.58,0,3.09,0,4.65,0Z" transform="translate(-122 -130)"/><rect x="99" y="186" width="5" height="5"/><path d="M226,321.36c-1.66,0-3.36.06-5,0l-.38,0V321l.13-5v-.26H221l5,.13h.13V316l-.12,5Zm0-.7-.11-4.66.12.12-5,.13.25-.25.13,5-.38-.38c1.58,0,3.09,0,4.65,0Z" transform="translate(-122 -130)"/><rect x="104" y="181" width="5" height="5"/><path d="M231,316.36c-1.66,0-3.36.06-5,0l-.38,0V316l.13-5v-.26H226l5,.13h.13V311l-.12,5Zm0-.7-.11-4.66.12.12-5,.13.25-.25.13,5-.38-.38c1.58,0,3.09,0,4.65,0Z" transform="translate(-122 -130)"/><rect x="79" y="191" width="5" height="5"/><path d="M206,326.36c-1.66,0-3.36.06-5,0l-.38,0V326l.13-5v-.26H201l5,.13h.13V321l-.12,5Zm0-.7-.11-4.66.12.12-5,.13.25-.25.13,5-.38-.38c1.58,0,3.09,0,4.65,0Z" transform="translate(-122 -130)"/><rect x="84" y="196" width="5" height="5"/><path d="M211,331.36c-1.66,0-3.36.06-5,0l-.38,0V331l.13-5v-.26H206l5,.13h.13V326l-.12,5Zm0-.7-.11-4.66.12.12-5,.13.25-.25.13,5-.38-.38c1.58,0,3.09,0,4.65,0Z" transform="translate(-122 -130)"/><rect x="79" y="196" width="5" height="5"/><path d="M206,331.36c-1.66,0-3.36.06-5,0l-.38,0V331l.13-5v-.26H201l5,.13h.13V326l-.12,5Zm0-.7-.11-4.66.12.12-5,.13.25-.25.13,5-.38-.38c1.58,0,3.09,0,4.65,0Z" transform="translate(-122 -130)"/><rect x="84" y="191" width="5" height="5"/><path d="M211,326.36c-1.66,0-3.36.06-5,0l-.38,0V326l.13-5v-.26H206l5,.13h.13V321l-.12,5Zm0-.7-.11-4.66.12.12-5,.13.25-.25.13,5-.38-.38c1.58,0,3.09,0,4.65,0Z" transform="translate(-122 -130)"/><rect x="79" y="181" width="5" height="5"/><path d="M206,316.36c-1.66,0-3.36.06-5,0l-.38,0V316l.13-5v-.26H201l5,.13h.13V311l-.12,5Zm0-.7-.11-4.66.12.12-5,.13.25-.25.13,5-.38-.38c1.58,0,3.09,0,4.65,0Z" transform="translate(-122 -130)"/><rect x="84" y="186" width="5" height="5"/><path d="M211,321.36c-1.66,0-3.36.06-5,0l-.38,0V321l.13-5v-.26H206l5,.13h.13V316l-.12,5Zm0-.7-.11-4.66.12.12-5,.13.25-.25.13,5-.38-.38c1.58,0,3.09,0,4.65,0Z" transform="translate(-122 -130)"/><rect x="79" y="186" width="5" height="5"/><path d="M206,321.36c-1.66,0-3.36.06-5,0l-.38,0V321l.13-5v-.26H201l5,.13h.13V316l-.12,5Zm0-.7-.11-4.66.12.12-5,.13.25-.25.13,5-.38-.38c1.58,0,3.09,0,4.65,0Z" transform="translate(-122 -130)"/><rect x="84" y="181" width="5" height="5"/><path d="M211,316.36c-1.66,0-3.36.06-5,0l-.38,0V316l.13-5v-.26H206l5,.13h.13V311l-.12,5Zm0-.7-.11-4.66.12.12-5,.13.25-.25.13,5-.38-.38c1.58,0,3.09,0,4.65,0Z" transform="translate(-122 -130)"/><rect x="89" y="191" width="5" height="5"/><path d="M216,326.36c-1.66,0-3.36.06-5,0l-.38,0V326l.13-5v-.26H211l5,.13h.13V321l-.12,5Zm0-.7-.11-4.66.12.12-5,.13.25-.25.13,5-.38-.38c1.58,0,3.09,0,4.65,0Z" transform="translate(-122 -130)"/><rect x="94" y="196" width="5" height="5"/><path d="M221,331.36c-1.66,0-3.36.06-5,0l-.38,0V331l.13-5v-.26H216l5,.13h.13V326l-.12,5Zm0-.7-.11-4.66.12.12-5,.13.25-.25.13,5-.38-.38c1.58,0,3.09,0,4.65,0Z" transform="translate(-122 -130)"/><rect x="89" y="196" width="5" height="5"/><path d="M216,331.36c-1.66,0-3.36.06-5,0l-.38,0V331l.13-5v-.26H211l5,.13h.13V326l-.12,5Zm0-.7-.11-4.66.12.12-5,.13.25-.25.13,5-.38-.38c1.58,0,3.09,0,4.65,0Z" transform="translate(-122 -130)"/><rect x="94" y="191" width="5" height="5"/><path d="M221,326.36c-1.66,0-3.36.06-5,0l-.38,0V326l.13-5v-.26H216l5,.13h.13V321l-.12,5Zm0-.7-.11-4.66.12.12-5,.13.25-.25.13,5-.38-.38c1.58,0,3.09,0,4.65,0Z" transform="translate(-122 -130)"/><rect x="79" y="201" width="5" height="5"/><path d="M206,336.36c-1.66,0-3.36.06-5,0l-.38,0V336l.13-5v-.26H201l5,.13h.13V331l-.12,5Zm0-.7-.11-4.66.12.12-5,.13.25-.25.13,5-.38-.38c1.58,0,3.09,0,4.65,0Z" transform="translate(-122 -130)"/><rect x="84" y="206" width="5" height="5"/><path d="M211,341.36c-1.66,0-3.36.06-5,0l-.38,0V341l.13-5v-.26H206l5,.13h.13V336l-.12,5Zm0-.7-.11-4.66.12.12-5,.13.25-.25.13,5-.38-.38c1.58,0,3.09,0,4.65,0Z" transform="translate(-122 -130)"/><rect x="79" y="206" width="5" height="5"/><path d="M206,341.36c-1.66,0-3.36.06-5,0l-.38,0V341l.13-5v-.26H201l5,.13h.13V336l-.12,5Zm0-.7-.11-4.66.12.12-5,.13.25-.25.13,5-.38-.38c1.58,0,3.09,0,4.65,0Z" transform="translate(-122 -130)"/><rect x="84" y="201" width="5" height="5"/><path d="M211,336.36c-1.66,0-3.36.06-5,0l-.38,0V336l.13-5v-.26H206l5,.13h.13V331l-.12,5Zm0-.7-.11-4.66.12.12-5,.13.25-.25.13,5-.38-.38c1.58,0,3.09,0,4.65,0Z" transform="translate(-122 -130)"/><rect x="99" y="171" width="5" height="5"/><path d="M226,306.36c-1.66,0-3.36.06-5,0l-.38,0V306l.13-5v-.26H221l5,.13h.13V301l-.12,5Zm0-.7-.11-4.66.12.12-5,.13.25-.25.13,5-.38-.38c1.58,0,3.09,0,4.65,0Z" transform="translate(-122 -130)"/><rect x="104" y="176" width="5" height="5"/><path d="M231,311.36c-1.66,0-3.36.06-5,0l-.38,0V311l.13-5v-.26H226l5,.13h.13V306l-.12,5Zm0-.7-.11-4.66.12.12-5,.13.25-.25.13,5-.38-.38c1.58,0,3.09,0,4.65,0Z" transform="translate(-122 -130)"/><rect x="99" y="176" width="5" height="5"/><path d="M226,311.36c-1.66,0-3.36.06-5,0l-.38,0V311l.13-5v-.26H221l5,.13h.13V306l-.12,5Zm0-.7-.11-4.66.12.12-5,.13.25-.25.13,5-.38-.38c1.58,0,3.09,0,4.65,0Z" transform="translate(-122 -130)"/><rect x="104" y="171" width="5" height="5"/><path d="M231,306.36c-1.66,0-3.36.06-5,0l-.38,0V306l.13-5v-.26H226l5,.13h.13V301l-.12,5Zm0-.7-.11-4.66.12.12-5,.13.25-.25.13,5-.38-.38c1.58,0,3.09,0,4.65,0Z" transform="translate(-122 -130)"/><g style="clip-path:url(#a)"><path d="M197.12,311c1.87-8.4,3.37-16.7,4.41-25.3.54-4.32,1-8.78,1.53-13.6A109.48,109.48,0,0,1,205.77,257a99,99,0,0,1,5-14.36c2-4.51,4.09-8.78,6.3-12.93,1.1-2.08,2.24-4.1,3.38-6.15l1.78-3.24c.6-1.08,1.26-2.11,1.89-3.16a109.68,109.68,0,0,1,8.52-11.83c12.4-14.83,27.91-26,44.21-34.42s33.4-14.69,50.4-20.83c-16.06,8.28-32.18,16.61-46.74,26.85a154.24,154.24,0,0,0-20.3,16.79A114.17,114.17,0,0,0,244,213.69a94.07,94.07,0,0,0-5.94,11c-.41.95-.86,1.88-1.23,2.85l-1.12,2.87c-.69,2.07-1.37,4.18-2,6.27-2.53,8.36-4.52,16.61-4.91,24.26a85,85,0,0,0,.28,11.85c.33,4.2.79,8.77,1.13,13.48.72,9.44.9,19.17.67,28.69Z" transform="translate(-122 -130)"/><path d="M194.37,346.39c8.83-32.09,9.25-67.4,1.36-101.37a216.61,216.61,0,0,0-18-49.51,202.61,202.61,0,0,0-30.42-44.18A206.87,206.87,0,0,1,185,191.06a229.32,229.32,0,0,1,27,48.79,236.78,236.78,0,0,1,14.83,54.78,228.94,228.94,0,0,1,1,57.94Z" transform="translate(-122 -130)"/><path d="M208.76,270.28a66.4,66.4,0,0,1,6.49-27.51,63,63,0,0,1,16.65-21.55,57.93,57.93,0,0,1,23.5-11.64,54.18,54.18,0,0,1,25.1-.05A51.53,51.53,0,0,0,257,214.32a49.82,49.82,0,0,0-28.3,54.53Z" transform="translate(-122 -130)"/><path d="M238.4,199.36A136.05,136.05,0,0,0,260.16,138a139.64,139.64,0,0,1-15.72,64.92Z" transform="translate(-122 -130)"/><path d="M201.83,246.78a69.27,69.27,0,0,1-4.35-44.6,65.66,65.66,0,0,1,23-36.15,62.67,62.67,0,0,0-17.08,37.16,60.34,60.34,0,0,0,9,37.91Z" transform="translate(-122 -130)"/><path d="M201.88,276.59a89.18,89.18,0,0,0-6.77-24.25,66.76,66.76,0,0,0-6.08-11,42.05,42.05,0,0,0-8.3-9.07c-.8-.63-1.63-1.2-2.47-1.74s-1.82-1.07-2.73-1.61l-2.85-1.47c-1-.43-1.94-.91-2.94-1.32a77.5,77.5,0,0,0-12.43-3.93,156.44,156.44,0,0,0-26.4-3.27,158.34,158.34,0,0,1,26.93.09,82,82,0,0,1,13.49,2.54c1.12.32,2.21.69,3.33,1l3.28,1.21c1.07.48,2.14.91,3.23,1.42s2.17,1.14,3.2,1.79a48.61,48.61,0,0,1,10.8,9.53,74.54,74.54,0,0,1,8.13,11.61,99.85,99.85,0,0,1,10.38,26.25Z" transform="translate(-122 -130)"/></g><path d="M246.69,240.06h18.24c11.17,0,15.86,3.36,15.86,10.55,0,4-2.07,6.71-5.91,8.3,4.88,1.65,7.56,4.94,7.56,9.82,0,8.3-5,11.84-17.87,11.84H246.69Zm16.05,16.53c4,0,5.73-1.46,5.73-4.39s-1.34-4.51-4.7-4.51h-4.94v8.9Zm.79,16.35c4.09,0,6.1-1.46,6.1-4.88s-1.77-5.12-5.86-5.12h-4.94v10Z" transform="translate(-122 -130)" style="fill:#1a1a1a;stroke:#1a1a1a"/><path d="M286,240.12h11.65v8.6H286Zm.12,11.65h11.47v28.8H286.16Z" transform="translate(-122 -130)" style="fill:#1a1a1a;stroke:#1a1a1a"/><path d="M302,251.77h11.59v4.88c1-3.17,3.48-5,8-5h.79v9.94h-4c-3.84,0-4.82,1.59-4.82,5v14H302Z" transform="translate(-122 -130)" style="fill:#1a1a1a;stroke:#1a1a1a"/><path d="M324.41,266.05c0-9.21,6.22-15,16.16-15,8.85,0,12.93,3.78,14.76,9.94l-10.24,2.38c-.43-2.25-1.47-4.45-4.21-4.45-3.11,0-4.64,2.38-4.64,7v.48c0,4.7,1.34,7,4.51,7,2.75,0,4.15-1.77,4.52-4.64l10.31,1.89c-1.46,6.53-5.86,10.62-14.95,10.62C330.26,281.3,324.41,275.69,324.41,266.05Z" transform="translate(-122 -130)" style="fill:#1a1a1a;stroke:#1a1a1a"/><path d="M358.32,239.82h11.47v16.41a8.9,8.9,0,0,1,8.6-5.19c6.28,0,10.07,4.09,10.07,12v17.51H376.93V264c0-2.92-1-4.45-3.42-4.45s-3.78,2-3.78,5.37v15.68H358.32Z" transform="translate(-122 -130)" style="fill:#1a1a1a;stroke:#1a1a1a"/><path d="M247.46,293.22H248a2.89,2.89,0,0,0,3.21,2.59c1.63,0,2.57-.91,2.57-2.2s-1.3-1.73-2.77-2-3.1-.84-3.1-2.44a2.63,2.63,0,0,1,2.9-2.51c1.81,0,2.92.77,3.37,3h-.52c-.4-2.05-1.5-2.59-2.86-2.59a2.12,2.12,0,0,0-2.38,2.08c0,1.3,1.33,1.75,2.8,2s3.07.83,3.07,2.44-1.11,2.63-3.11,2.63C249,296.23,247.92,295.32,247.46,293.22Z" transform="translate(-122 -130)" style="fill:#333;stroke:#333"/><path d="M255.66,287.49h.65v.69h-.65Zm.09,2h.49v6.61h-.49Z" transform="translate(-122 -130)" style="fill:#333;stroke:#333"/><path d="M257.41,297.3c0-.8.66-1.32,1.66-1.56-.93-.14-1.42-.56-1.42-1.21s.41-1.07,1.25-1.18a2.14,2.14,0,0,1-1-1.85,2.38,2.38,0,0,1,2.57-2.3,2.45,2.45,0,0,1,2.24,1.21,1.19,1.19,0,0,1,1.24-.93V290c-.5-.15-.88.08-1.09.74a2.52,2.52,0,0,1,.13.79c0,1.37-1,2.24-2.57,2.24a3.14,3.14,0,0,1-.94-.13c-1.13-.08-1.45.34-1.45.86s.64.92,1.85.92h.95c2.11,0,2.94.46,2.94,1.61s-1.16,1.91-3.32,1.91S257.41,298.43,257.41,297.3Zm5.94-.24c0-.88-.61-1.18-2.56-1.18h-.42c-1.46,0-2.51.61-2.51,1.39s.83,1.29,2.62,1.29S263.35,298,263.35,297.06Zm-.8-5.52h0a1.87,1.87,0,0,0-2.05-1.94,1.89,1.89,0,0,0-2.09,1.91h0a1.81,1.81,0,0,0,2,1.88C261.77,293.39,262.55,292.7,262.55,291.54Z" transform="translate(-122 -130)" style="fill:#333;stroke:#333"/><path d="M265,289.48h.46v1.95a2.44,2.44,0,0,1,2.48-2.09,2.21,2.21,0,0,1,2.29,2.48v4.27h-.49v-4.23c0-1.38-.72-2.1-1.81-2.1-1.68,0-2.44,1.4-2.44,3.85v2.48H265Z" transform="translate(-122 -130)" style="fill:#333;stroke:#333"/><path d="M271.5,294.38c0-1.37,1.2-1.75,2.42-2,.95-.22,1.92-.36,2.26-.88v-.05c0-1.14-.58-1.69-1.88-1.69s-2.09.4-2.1,1.66v0h-.51c0-1.47,1.14-2.09,2.61-2.09s2.37.73,2.37,2.15v4.11l0,.49h-.53v-1.38a2.58,2.58,0,0,1-2.48,1.52C272.29,296.23,271.5,295.46,271.5,294.38Zm4.68-.44v-2c-.37.47-1.31.61-2.2.8s-2,.55-2,1.64c0,.85.57,1.44,1.66,1.44A2.44,2.44,0,0,0,276.18,293.94Z" transform="translate(-122 -130)" style="fill:#333;stroke:#333"/><path d="M278.41,286.65h.48v9.44h-.48Z" transform="translate(-122 -130)" style="fill:#333;stroke:#333"/><path d="M280.16,295l.32-.28a3.2,3.2,0,0,0,2.5,1.11c1.12,0,1.82-.57,1.82-1.46s-.9-1.21-2.1-1.5c-1.39-.34-2.22-.63-2.22-1.81a1.9,1.9,0,0,1,2.12-1.75,3.4,3.4,0,0,1,2.49,1.07l-.28.33a3.06,3.06,0,0,0-2.21-1c-1,0-1.67.55-1.67,1.36s.76,1.11,2,1.4,2.34.67,2.34,1.86-.88,1.89-2.27,1.89A3.48,3.48,0,0,1,280.16,295Z" transform="translate(-122 -130)" style="fill:#333;stroke:#333"/><path d="M291.92,286.76h.69l3.38,9.33h-.55l-1.2-3.39h-4l-1.21,3.39h-.51Zm2.16,5.51-1.85-5.07-1.82,5.07Z" transform="translate(-122 -130)" style="fill:#333;stroke:#333"/><path d="M297.16,289.48h.46v1.95a2.43,2.43,0,0,1,2.48-2.09,2.21,2.21,0,0,1,2.28,2.48v4.27h-.49v-4.23c0-1.38-.71-2.1-1.8-2.1-1.68,0-2.44,1.4-2.44,3.85v2.48h-.49Z" transform="translate(-122 -130)" style="fill:#333;stroke:#333"/><path d="M303.65,294.38c0-1.37,1.21-1.75,2.43-2,.95-.22,1.92-.36,2.25-.88v-.05c0-1.14-.57-1.69-1.87-1.69s-2.09.4-2.1,1.66v0h-.51c0-1.47,1.14-2.09,2.61-2.09s2.36.73,2.36,2.15v4.11l0,.49h-.53v-1.38a2.58,2.58,0,0,1-2.48,1.52C304.45,296.23,303.65,295.46,303.65,294.38Zm4.68-.44v-2c-.36.47-1.3.61-2.2.8s-2,.55-2,1.64c0,.85.58,1.44,1.67,1.44A2.42,2.42,0,0,0,308.33,293.94Z" transform="translate(-122 -130)" style="fill:#333;stroke:#333"/><path d="M310.57,286.65h.48v9.44h-.48Z" transform="translate(-122 -130)" style="fill:#333;stroke:#333"/><path d="M312.14,298.22h.64c1.19,0,1.4-.39,2.17-2.49l-2.78-6.25h.49l2.52,5.72,2.14-5.72h.48L315.3,296c-.74,1.95-1,2.63-2.5,2.63h-.66Z" transform="translate(-122 -130)" style="fill:#333;stroke:#333"/><path d="M318.16,295l.32-.28a3.18,3.18,0,0,0,2.49,1.11c1.12,0,1.82-.57,1.82-1.46s-.89-1.21-2.1-1.5c-1.38-.34-2.21-.63-2.21-1.81a1.9,1.9,0,0,1,2.12-1.75,3.41,3.41,0,0,1,2.49,1.07l-.28.33a3.06,3.06,0,0,0-2.21-1c-1,0-1.67.55-1.67,1.36s.76,1.11,2,1.4,2.34.67,2.34,1.86-.88,1.89-2.27,1.89A3.46,3.46,0,0,1,318.16,295Z" transform="translate(-122 -130)" style="fill:#333;stroke:#333"/><path d="M324.5,287.49h.64v.69h-.64Zm.08,2h.5v6.61h-.5Z" transform="translate(-122 -130)" style="fill:#333;stroke:#333"/><path d="M326.29,295l.33-.28a3.16,3.16,0,0,0,2.49,1.11c1.12,0,1.82-.57,1.82-1.46s-.9-1.21-2.1-1.5c-1.39-.34-2.21-.63-2.21-1.81a1.89,1.89,0,0,1,2.11-1.75,3.4,3.4,0,0,1,2.49,1.07l-.28.33a3.06,3.06,0,0,0-2.21-1c-1,0-1.67.55-1.67,1.36s.76,1.11,2,1.4,2.34.67,2.34,1.86-.88,1.89-2.27,1.89A3.48,3.48,0,0,1,326.29,295Z" transform="translate(-122 -130)" style="fill:#333;stroke:#333"/><path d="M337.68,287.23h-3.3v-.44h7.11v.44h-3.3v8.86h-.51Z" transform="translate(-122 -130)" style="fill:#333;stroke:#333"/><path d="M340.52,292.79a3.22,3.22,0,1,1,3.2,3.44A3.16,3.16,0,0,1,340.52,292.79Zm5.94,0v-.06c0-1.82-1-3-2.71-3a2.69,2.69,0,0,0-2.74,3v.06c0,1.82,1,3,2.71,3A2.69,2.69,0,0,0,346.46,292.82Z" transform="translate(-122 -130)" style="fill:#333;stroke:#333"/><path d="M347.81,292.79a3.22,3.22,0,1,1,3.21,3.44A3.17,3.17,0,0,1,347.81,292.79Zm5.94,0v-.06c0-1.82-1-3-2.7-3a2.7,2.7,0,0,0-2.75,3v.06c0,1.82,1,3,2.72,3A2.69,2.69,0,0,0,353.75,292.82Z" transform="translate(-122 -130)" style="fill:#333;stroke:#333"/><path d="M355.59,286.65h.48v9.44h-.48Z" transform="translate(-122 -130)" style="fill:#333;stroke:#333"/><rect width="278" height="220" style="fill:none"/></svg>